<svg width="211" height="34" viewBox="0 0 211 34" fill="none" xmlns="http://www.w3.org/2000/svg">
<g opacity="0.8">
<path d="M46.8721 24.7682H43.1954V8.63916H46.8721V15.0708H52.0709V8.63916H55.7475V24.7682H52.0709V18.2976H46.8721V24.7682Z" fill="white"/>
<path d="M75.5679 24.7682H71.6189L70.4274 21.5438H64.2876L63.0961 24.7682H59.1471L65.6541 8.63916H69.0584L75.5679 24.7682ZM67.3782 13.624H67.3393L65.5399 18.3171H69.1873L67.3782 13.624Z" fill="white"/>
<path d="M90.0944 20.4475L91.6579 23.577C91.6579 23.577 89.8585 25.0627 86.3594 25.0627C81.805 25.0627 77.6201 21.3472 77.6201 16.7344C77.6201 12.1215 81.7855 8.34766 86.3594 8.34766C89.8585 8.34766 91.6579 9.83338 91.6579 9.83338L90.0944 12.9605C89.1653 12.317 88.0634 11.9695 86.9333 11.9635C83.2396 11.9635 81.6153 14.5435 81.6153 16.6954C81.6153 18.8474 83.2396 21.4444 86.9333 21.4444C88.0634 21.4384 89.1653 21.0909 90.0944 20.4475V20.4475Z" fill="white"/>
<path d="M105.457 24.7682L99.5145 17.9256V24.7682H95.8403V8.63916H99.5145V15.2289L105.046 8.63916H109.504L103.014 16.2842L110.523 24.7682H105.457Z" fill="white"/>
<path d="M131.731 24.7682L125.788 17.9256V24.7682H122.112V8.63916H125.788V15.2289L131.32 8.63916H135.777L129.287 16.2842L136.794 24.7682H131.731Z" fill="white"/>
<path d="M147.683 8.34766C152.159 8.34766 155.795 11.9829 155.795 16.6954C155.795 21.408 152.315 25.0627 147.683 25.0627C142.912 25.0627 139.549 21.4152 139.549 16.6954C139.549 11.9757 143.245 8.34766 147.683 8.34766ZM147.683 21.5028C150.615 21.5028 151.817 19.1003 151.817 16.6954C151.817 14.2906 150.528 11.8857 147.683 11.8857C144.838 11.8857 143.517 14.2906 143.517 16.6954C143.517 19.1003 144.682 21.4955 147.683 21.4955V21.5028Z" fill="white"/>
<path d="M171.141 9.87238L169.655 12.8049C169.655 12.8049 168.053 11.6888 166.389 11.6888C165.139 11.6888 164.473 12.2578 164.473 13.1478C164.473 14.0378 166 14.6943 167.836 15.4749C169.636 16.2384 171.61 17.763 171.61 19.8737C171.61 23.7254 168.677 25.0749 165.531 25.0749C163.323 25.0962 161.177 24.3414 159.469 22.9424L161.307 19.8542C161.307 19.8542 163.457 21.6731 165.256 21.6731C166.059 21.6731 167.583 21.5953 167.583 20.0901C167.583 18.9156 165.862 18.388 163.936 17.4299C162.01 16.4718 160.867 14.9666 160.867 13.2961C160.867 10.2858 163.527 8.36963 166.127 8.36963C167.909 8.3726 169.651 8.89481 171.141 9.87238V9.87238Z" fill="white"/>
<path d="M179.78 24.7682H176.106V8.63916H179.78V24.7682Z" fill="white"/>
<path d="M196.026 20.4475L197.59 23.577C197.59 23.577 195.793 25.0627 192.291 25.0627C187.737 25.0627 183.554 21.3472 183.554 16.7344C183.554 12.1215 187.722 8.34766 192.291 8.34766C195.793 8.34766 197.59 9.83338 197.59 9.83338L196.026 12.9605C195.097 12.3164 193.995 11.9688 192.865 11.9635C189.169 11.9635 187.547 14.5435 187.547 16.6954C187.547 18.8474 189.169 21.4444 192.865 21.4444C193.995 21.4392 195.097 21.0916 196.026 20.4475Z" fill="white"/>
<path d="M211 11.8659H205.449V15.0708H210.767V18.2976H205.449V21.5438H211V24.7682H201.76V8.63916H211V11.8659Z" fill="white"/>
<path fill-rule="evenodd" clip-rule="evenodd" d="M0 0H33.5565V33.5565H0V0ZM3.89061 3.89061V29.6659H29.6659V3.89061H3.89061Z" fill="white"/>
<path d="M9.22559 12.0972H11.2122V16.5981H11.2365C11.6622 16.1325 12.255 15.8545 12.8852 15.8249C13.9405 15.8249 15.4117 16.3525 15.4117 17.9574V21.7507H13.425V18.4948C13.4325 18.3529 13.4116 18.211 13.3634 18.0773C13.3152 17.9437 13.2408 17.821 13.1445 17.7165C13.0482 17.6121 12.932 17.5279 12.8027 17.4691C12.6734 17.4102 12.5336 17.3778 12.3916 17.3738C12.0912 17.3819 11.8045 17.5009 11.5867 17.7079C11.369 17.9149 11.2356 18.1952 11.2122 18.4948V21.7507H9.22559V12.0972Z" fill="white"/>
<path d="M22.1911 18.7428L25.199 21.7507H22.6385L20.3382 19.4504V21.7507H18.3516V12.0972H20.3382V18.0012L22.3467 15.9926H24.9291L22.1911 18.7428Z" fill="white"/>
</g>
</svg>
